<svg xmlns="http://www.w3.org/2000/svg" version="1.1" xmlns:xlink="http://www.w3.org/1999/xlink" xmlns:svgjs="http://svgjs.dev/svgjs" viewBox="0 0 800 800" opacity="0.22" width="800" height="800"><g stroke-width="8" stroke="hsla(0, 0%, 100%, 0.48)" fill="none"><circle r="9.973684210526315" cx="0" cy="0" fill="hsla(0, 0%, 100%, 0.48)" stroke="none"></circle><circle r="9.973684210526315" cx="80" cy="0" fill="hsla(0, 0%, 100%, 0.48)" stroke="none"></circle><circle r="9.973684210526315" cx="160" cy="0" fill="hsla(0, 0%, 100%, 0.48)" stroke="none"></circle><circle r="9.973684210526315" cx="240" cy="0" fill="hsla(0, 0%, 100%, 0.48)" stroke="none"></circle><circle r="9.973684210526315" cx="320" cy="0" fill="hsla(0, 0%, 100%, 0.48)" stroke="none"></circle><circle r="9.973684210526315" cx="400" cy="0" fill="hsla(0, 0%, 100%, 0.48)" stroke="none"></circle><circle r="9.973684210526315" cx="480" cy="0" fill="hsla(0, 0%, 100%, 0.48)" stroke="none"></circle><circle r="9.973684210526315" cx="560" cy="0" fill="hsla(0, 0%, 100%, 0.48)" stroke="none"></circle><circle r="9.973684210526315" cx="640" cy="0" fill="hsla(0, 0%, 100%, 0.48)" stroke="none"></circle><circle r="9.973684210526315" cx="720" cy="0" fill="hsla(0, 0%, 100%, 0.48)" stroke="none"></circle><circle r="9.973684210526315" cx="800" cy="0" fill="hsla(0, 0%, 100%, 0.48)" stroke="none"></circle><circle r="9.973684210526315" cx="0" cy="100" fill="hsla(0, 0%, 100%, 0.48)" stroke="none"></circle><circle r="9.973684210526315" cx="80" cy="100" fill="hsla(0, 0%, 100%, 0.48)" stroke="none"></circle><circle r="9.973684210526315" cx="160" cy="100" fill="hsla(0, 0%, 100%, 0.48)" stroke="none"></circle><circle r="9.973684210526315" cx="240" cy="100" fill="hsla(0, 0%, 100%, 0.48)" stroke="none"></circle><circle r="9.973684210526315" cx="320" cy="100" fill="hsla(0, 0%, 100%, 0.48)" stroke="none"></circle><circle r="9.973684210526315" cx="400" cy="100" fill="hsla(0, 0%, 100%, 0.48)" stroke="none"></circle><circle r="9.973684210526315" cx="480" cy="100" fill="hsla(0, 0%, 100%, 0.48)" stroke="none"></circle><circle r="9.973684210526315" cx="560" cy="100" fill="hsla(0, 0%, 100%, 0.48)" stroke="none"></circle><circle r="9.973684210526315" cx="640" cy="100" fill="hsla(0, 0%, 100%, 0.48)" stroke="none"></circle><circle r="9.973684210526315" cx="720" cy="100" fill="hsla(0, 0%, 100%, 0.48)" stroke="none"></circle><circle r="9.973684210526315" cx="800" cy="100" fill="hsla(0, 0%, 100%, 0.48)" stroke="none"></circle><circle r="9.973684210526315" cx="0" cy="200" fill="hsla(0, 0%, 100%, 0.48)" stroke="none"></circle><circle r="9.973684210526315" cx="80" cy="200" fill="hsla(0, 0%, 100%, 0.48)" stroke="none"></circle><circle r="9.973684210526315" cx="160" cy="200" fill="hsla(0, 0%, 100%, 0.48)" stroke="none"></circle><circle r="9.973684210526315" cx="240" cy="200" fill="hsla(0, 0%, 100%, 0.48)" stroke="none"></circle><circle r="9.973684210526315" cx="320" cy="200" fill="hsla(0, 0%, 100%, 0.48)" stroke="none"></circle><circle r="9.973684210526315" cx="400" cy="200" fill="hsla(0, 0%, 100%, 0.48)" stroke="none"></circle><circle r="9.973684210526315" cx="480" cy="200" fill="hsla(0, 0%, 100%, 0.48)" stroke="none"></circle><circle r="9.973684210526315" cx="560" cy="200" fill="hsla(0, 0%, 100%, 0.48)" stroke="none"></circle><circle r="9.973684210526315" cx="640" cy="200" fill="hsla(0, 0%, 100%, 0.48)" stroke="none"></circle><circle r="9.973684210526315" cx="720" cy="200" fill="hsla(0, 0%, 100%, 0.48)" stroke="none"></circle><circle r="9.973684210526315" cx="800" cy="200" fill="hsla(0, 0%, 100%, 0.48)" stroke="none"></circle><circle r="9.973684210526315" cx="0" cy="300" fill="hsla(0, 0%, 100%, 0.48)" stroke="none"></circle><circle r="9.973684210526315" cx="80" cy="300" fill="hsla(0, 0%, 100%, 0.48)" stroke="none"></circle><circle r="9.973684210526315" cx="160" cy="300" fill="hsla(0, 0%, 100%, 0.48)" stroke="none"></circle><circle r="9.973684210526315" cx="240" cy="300" fill="hsla(0, 0%, 100%, 0.48)" stroke="none"></circle><circle r="9.973684210526315" cx="320" cy="300" fill="hsla(0, 0%, 100%, 0.48)" stroke="none"></circle><circle r="9.973684210526315" cx="400" cy="300" fill="hsla(0, 0%, 100%, 0.48)" stroke="none"></circle><circle r="9.973684210526315" cx="480" cy="300" fill="hsla(0, 0%, 100%, 0.48)" stroke="none"></circle><circle r="9.973684210526315" cx="560" cy="300" fill="hsla(0, 0%, 100%, 0.48)" stroke="none"></circle><circle r="9.973684210526315" cx="640" cy="300" fill="hsla(0, 0%, 100%, 0.48)" stroke="none"></circle><circle r="9.973684210526315" cx="720" cy="300" fill="hsla(0, 0%, 100%, 0.48)" stroke="none"></circle><circle r="9.973684210526315" cx="800" cy="300" fill="hsla(0, 0%, 100%, 0.48)" stroke="none"></circle><circle r="9.973684210526315" cx="0" cy="400" fill="hsla(0, 0%, 100%, 0.48)" stroke="none"></circle><circle r="9.973684210526315" cx="80" cy="400" fill="hsla(0, 0%, 100%, 0.48)" stroke="none"></circle><circle r="9.973684210526315" cx="160" cy="400" fill="hsla(0, 0%, 100%, 0.48)" stroke="none"></circle><circle r="9.973684210526315" cx="240" cy="400" fill="hsla(0, 0%, 100%, 0.48)" stroke="none"></circle><circle r="9.973684210526315" cx="320" cy="400" fill="hsla(0, 0%, 100%, 0.48)" stroke="none"></circle><circle r="9.973684210526315" cx="400" cy="400" fill="hsla(0, 0%, 100%, 0.48)" stroke="none"></circle><circle r="9.973684210526315" cx="480" cy="400" fill="hsla(0, 0%, 100%, 0.48)" stroke="none"></circle><circle r="9.973684210526315" cx="560" cy="400" fill="hsla(0, 0%, 100%, 0.48)" stroke="none"></circle><circle r="9.973684210526315" cx="640" cy="400" fill="hsla(0, 0%, 100%, 0.48)" stroke="none"></circle><circle r="9.973684210526315" cx="720" cy="400" fill="hsla(0, 0%, 100%, 0.48)" stroke="none"></circle><circle r="9.973684210526315" cx="800" cy="400" fill="hsla(0, 0%, 100%, 0.48)" stroke="none"></circle><circle r="9.973684210526315" cx="0" cy="500" fill="hsla(0, 0%, 100%, 0.48)" stroke="none"></circle><circle r="9.973684210526315" cx="80" cy="500" fill="hsla(0, 0%, 100%, 0.48)" stroke="none"></circle><circle r="9.973684210526315" cx="160" cy="500" fill="hsla(0, 0%, 100%, 0.48)" stroke="none"></circle><circle r="9.973684210526315" cx="240" cy="500" fill="hsla(0, 0%, 100%, 0.48)" stroke="none"></circle><circle r="9.973684210526315" cx="320" cy="500" fill="hsla(0, 0%, 100%, 0.48)" stroke="none"></circle><circle r="9.973684210526315" cx="400" cy="500" fill="hsla(0, 0%, 100%, 0.48)" stroke="none"></circle><circle r="9.973684210526315" cx="480" cy="500" fill="hsla(0, 0%, 100%, 0.48)" stroke="none"></circle><circle r="9.973684210526315" cx="560" cy="500" fill="hsla(0, 0%, 100%, 0.48)" stroke="none"></circle><circle r="9.973684210526315" cx="640" cy="500" fill="hsla(0, 0%, 100%, 0.48)" stroke="none"></circle><circle r="9.973684210526315" cx="720" cy="500" fill="hsla(0, 0%, 100%, 0.48)" stroke="none"></circle><circle r="9.973684210526315" cx="800" cy="500" fill="hsla(0, 0%, 100%, 0.48)" stroke="none"></circle><circle r="9.973684210526315" cx="0" cy="600" fill="hsla(0, 0%, 100%, 0.48)" stroke="none"></circle><circle r="9.973684210526315" cx="80" cy="600" fill="hsla(0, 0%, 100%, 0.48)" stroke="none"></circle><circle r="9.973684210526315" cx="160" cy="600" fill="hsla(0, 0%, 100%, 0.48)" stroke="none"></circle><circle r="9.973684210526315" cx="240" cy="600" fill="hsla(0, 0%, 100%, 0.48)" stroke="none"></circle><circle r="9.973684210526315" cx="320" cy="600" fill="hsla(0, 0%, 100%, 0.48)" stroke="none"></circle><circle r="9.973684210526315" cx="400" cy="600" fill="hsla(0, 0%, 100%, 0.48)" stroke="none"></circle><circle r="9.973684210526315" cx="480" cy="600" fill="hsla(0, 0%, 100%, 0.48)" stroke="none"></circle><circle r="9.973684210526315" cx="560" cy="600" fill="hsla(0, 0%, 100%, 0.48)" stroke="none"></circle><circle r="9.973684210526315" cx="640" cy="600" fill="hsla(0, 0%, 100%, 0.48)" stroke="none"></circle><circle r="9.973684210526315" cx="720" cy="600" fill="hsla(0, 0%, 100%, 0.48)" stroke="none"></circle><circle r="9.973684210526315" cx="800" cy="600" fill="hsla(0, 0%, 100%, 0.48)" stroke="none"></circle><circle r="9.973684210526315" cx="0" cy="700" fill="hsla(0, 0%, 100%, 0.48)" stroke="none"></circle><circle r="9.973684210526315" cx="80" cy="700" fill="hsla(0, 0%, 100%, 0.48)" stroke="none"></circle><circle r="9.973684210526315" cx="160" cy="700" fill="hsla(0, 0%, 100%, 0.48)" stroke="none"></circle><circle r="9.973684210526315" cx="240" cy="700" fill="hsla(0, 0%, 100%, 0.48)" stroke="none"></circle><circle r="9.973684210526315" cx="320" cy="700" fill="hsla(0, 0%, 100%, 0.48)" stroke="none"></circle><circle r="9.973684210526315" cx="400" cy="700" fill="hsla(0, 0%, 100%, 0.48)" stroke="none"></circle><circle r="9.973684210526315" cx="480" cy="700" fill="hsla(0, 0%, 100%, 0.48)" stroke="none"></circle><circle r="9.973684210526315" cx="560" cy="700" fill="hsla(0, 0%, 100%, 0.48)" stroke="none"></circle><circle r="9.973684210526315" cx="640" cy="700" fill="hsla(0, 0%, 100%, 0.48)" stroke="none"></circle><circle r="9.973684210526315" cx="720" cy="700" fill="hsla(0, 0%, 100%, 0.48)" stroke="none"></circle><circle r="9.973684210526315" cx="800" cy="700" fill="hsla(0, 0%, 100%, 0.48)" stroke="none"></circle><circle r="9.973684210526315" cx="0" cy="800" fill="hsla(0, 0%, 100%, 0.48)" stroke="none"></circle><circle r="9.973684210526315" cx="80" cy="800" fill="hsla(0, 0%, 100%, 0.48)" stroke="none"></circle><circle r="9.973684210526315" cx="160" cy="800" fill="hsla(0, 0%, 100%, 0.48)" stroke="none"></circle><circle r="9.973684210526315" cx="240" cy="800" fill="hsla(0, 0%, 100%, 0.48)" stroke="none"></circle><circle r="9.973684210526315" cx="320" cy="800" fill="hsla(0, 0%, 100%, 0.48)" stroke="none"></circle><circle r="9.973684210526315" cx="400" cy="800" fill="hsla(0, 0%, 100%, 0.48)" stroke="none"></circle><circle r="9.973684210526315" cx="480" cy="800" fill="hsla(0, 0%, 100%, 0.48)" stroke="none"></circle><circle r="9.973684210526315" cx="560" cy="800" fill="hsla(0, 0%, 100%, 0.48)" stroke="none"></circle><circle r="9.973684210526315" cx="640" cy="800" fill="hsla(0, 0%, 100%, 0.48)" stroke="none"></circle><circle r="9.973684210526315" cx="720" cy="800" fill="hsla(0, 0%, 100%, 0.48)" stroke="none"></circle><circle r="9.973684210526315" cx="800" cy="800" fill="hsla(0, 0%, 100%, 0.48)" stroke="none"></circle></g></svg>